<?xml version="1.0" encoding="UTF-8"?>
<svg width="1404px" height="479px" viewBox="0 0 1404 479" version="1.1" xmlns="http://www.w3.org/2000/svg" xmlns:xlink="http://www.w3.org/1999/xlink">
    <!-- Generator: Sketch 43.2 (39069) - http://www.bohemiancoding.com/sketch -->
    <title>Mustache_Logo</title>
    <desc>Created with Sketch.</desc>
    <defs></defs>
    <g id="Page-1" stroke="none" stroke-width="1" fill="none" fill-rule="evenodd">
        <g id="Mustache_Logo" fill-rule="nonzero">
            <path d="M1299.34173,18.9899408 C1299.34173,18.9899408 1202.74798,-36.2792899 1138.72984,42.2313609 C1138.72984,42.2313609 1100.77218,90.9816568 1152.32661,136.330769 C1146.66129,115.356805 1147.79435,90.9816568 1167.33972,68.5905325 C1168.47278,67.1733728 1169.88911,65.756213 1171.30544,64.3390533 C1177.82056,58.1035503 1199.34879,41.3810651 1236.45665,47.0497041 C1269.88206,52.1514793 1289.71069,75.9597633 1297.9254,88.1473373 C1298.20867,88.7142012 1298.7752,89.564497 1299.05847,90.1313609 C1299.34173,90.6982249 1299.90827,91.2650888 1300.19153,91.8319527 L1300.19153,91.8319527 C1312.08871,111.388757 1318.60383,134.063314 1318.60383,157.588166 C1318.60383,227.312426 1261.9506,284.282249 1191.98387,284.282249 C1128.53226,284.282249 1080.37702,239.783432 1029.67238,192.733728 C1005.87802,170.626036 981.233871,147.668047 954.606855,129.811834 C938.743952,119.04142 906.451613,100.051479 866.227823,90.9816568 C812.690524,79.0775148 763.685484,89.564497 724.028226,121.592308 C721.195565,123.859763 718.646169,126.127219 716.096774,128.678107 C708.448589,136.047337 696.268145,136.047337 688.903226,128.678107 C686.353831,126.127219 683.804435,123.859763 680.971774,121.592308 C641.314516,89.564497 592.309476,79.0775148 538.772177,90.9816568 C498.548387,100.051479 466.256048,119.04142 450.393145,129.811834 C423.766129,147.668047 399.121976,170.626036 375.327621,192.733728 C324.622984,239.783432 276.467742,284.282249 213.016129,284.282249 C143.332661,284.282249 86.3961694,227.595858 86.3961694,157.588166 C86.3961694,134.063314 92.9112903,111.388757 104.808468,91.8319527 L104.808468,91.8319527 C105.091734,91.2650888 105.375,90.6982249 105.941532,90.1313609 C106.224798,89.564497 106.791331,88.7142012 107.074597,88.1473373 C115.289315,75.9597633 135.117944,52.1514793 168.543347,47.0497041 C205.65121,41.3810651 227.179435,58.1035503 233.694556,64.3390533 C235.110887,65.756213 236.243952,66.8899408 237.660282,68.5905325 C257.205645,90.9816568 258.055444,115.356805 252.673387,136.330769 C304.227823,90.9816568 266.270161,42.2313609 266.270161,42.2313609 C201.402218,-36.2792899 104.808468,18.9899408 104.808468,18.9899408 C40.2237903,54.135503 0,121.592308 0,195.284615 C0,253.95503 20.9616935,310.924852 59.202621,355.707101 C67.983871,366.760947 160.328629,478.716568 358.614919,478.716568 C381.559476,478.716568 405.637097,477.299408 431.131048,473.898225 C564.549395,456.892308 648.112903,393.120118 690.602823,327.930769 C695.984879,319.711243 707.59879,319.711243 712.980847,327.930769 C755.470766,393.120118 839.034274,456.892308 972.452621,473.898225 C998.229839,477.299408 1022.30746,478.716568 1044.96875,478.716568 C1243.25504,478.716568 1335.88306,366.760947 1344.38105,355.707101 C1382.62198,311.208284 1403.58367,254.238462 1403.58367,195.284615 C1404.1502,121.592308 1363.92641,54.135503 1299.34173,18.9899408 Z" id="Shape" fill="#58595B"></path>
            <path d="M212.449597,332.749112 C295.163306,332.749112 355.215726,277.19645 408.186492,228.162722 C431.697581,206.338462 454.075605,185.647929 477.303427,169.77574 C499.681452,154.753846 574.180444,111.105325 637.915323,150.785799 C626.301411,154.753846 614.6875,159.288757 603.640121,164.390533 C586.360887,172.326627 569.648185,181.39645 553.785282,191.316568 C537.922379,201.520118 522.909274,211.440237 507.896169,221.360355 C477.86996,241.484024 448.127016,261.040828 417.81754,279.180473 C387.224798,297.036686 355.782258,313.47574 322.923387,325.09645 C294.313508,335.3 264.287298,341.818935 233.977823,342.102367 L233.977823,342.102367 C233.977823,342.102367 233.977823,342.102367 233.694556,342.102367 C230.012097,342.102367 226.046371,342.102367 222.363911,341.818935 C210.75,340.968639 192.337702,338.13432 176.474798,329.347929 C188.371976,331.615385 200.269153,332.749112 212.449597,332.749112 Z M109.340726,318.577515 C179.30746,365.910651 246.724798,360.808876 246.724798,360.808876 L246.724798,360.808876 C275.051411,360.808876 303.378024,355.707101 330.571573,347.487574 C366.263105,337.000592 399.971774,321.695266 432.264113,304.972781 C464.556452,287.966864 495.715726,269.260355 526.875,251.12071 C542.454637,242.050888 557.751008,232.697633 573.047379,225.04497 C588.34375,217.392308 604.206653,210.306509 620.352823,204.921302 C628.284274,202.086982 636.498992,199.536095 644.430444,197.552071 C638.198589,206.905325 631.400202,215.975148 624.318548,224.761538 C600.80746,253.388166 573.047379,278.897041 541.888105,299.587574 C510.728831,320.561538 476.453629,336.71716 440.478831,348.621302 C422.349798,354.573373 403.9375,359.675148 385.241935,363.643195 C366.546371,367.611243 347.56754,371.012426 328.58871,372.99645 C290.631048,377.247929 252.106855,376.964497 214.715726,369.028402 C177.607863,361.37574 141.916331,345.50355 112.456653,321.128402 C111.323589,320.278107 110.190524,319.427811 109.340726,318.577515 Z M671.907258,253.671598 C643.580645,354.006509 527.441532,412.110059 424.899194,425.147929 C399.971774,428.26568 376.743952,429.68284 354.93246,429.399408 L354.93246,428.832544 C354.93246,428.832544 213.865927,431.666864 141.916331,357.12426 C163.16129,369.878698 186.389113,379.231953 210.183468,385.467456 C249.274194,395.671006 289.78125,398.221893 329.721774,395.671006 C349.833669,394.537278 369.662298,392.269822 389.207661,388.868639 C408.753024,385.750888 428.581653,381.499408 448.127016,376.114201 C486.934476,365.343787 524.892137,349.75503 560.017137,328.781065 C595.142137,308.090533 627.434476,281.731361 654.91129,251.12071 C662.559476,242.901183 669.641129,234.398225 676.439516,225.328402 C676.439516,234.681657 674.739919,244.034911 671.907258,253.671598 Z M926.563508,169.77574 C950.074597,185.647929 972.169355,206.338462 995.680444,228.162722 C1048.65121,277.19645 1108.70363,332.749112 1191.41734,332.749112 C1203.59778,332.749112 1215.49496,331.331953 1227.10887,329.064497 C1211.24597,338.13432 1192.83367,340.685207 1181.21976,341.535503 C1177.5373,341.818935 1173.57157,341.818935 1169.88911,341.818935 L1169.60585,341.818935 L1169.60585,341.818935 C1139.57964,341.818935 1109.55343,335.016568 1080.66028,324.813018 C1047.80141,313.192308 1016.35887,296.753254 985.766129,278.897041 C955.173387,260.757396 925.430444,240.91716 895.6875,221.076923 C880.674395,211.156805 865.66129,200.953254 849.798387,191.033136 C833.935484,181.113018 817.222782,172.043195 799.943548,164.107101 C788.896169,159.005325 777.282258,154.470414 765.668347,150.502367 C829.686492,111.105325 904.185484,154.753846 926.563508,169.77574 Z M1048.93448,428.832544 L1048.93448,429.399408 C1027.12298,429.68284 1003.89516,428.26568 978.967742,425.147929 C876.425403,412.110059 760.28629,354.006509 731.959677,253.671598 C729.127016,244.034911 727.710685,234.681657 727.144153,225.895266 C733.94254,234.681657 741.024194,243.184615 748.672379,251.687574 C776.43246,282.298225 808.441532,308.373964 843.566532,329.347929 C878.691532,350.321893 916.649194,365.627219 955.456653,376.681065 C974.71875,382.066272 994.547379,386.317751 1014.37601,389.435503 C1034.20464,392.553254 1054.03327,395.104142 1073.8619,396.23787 C1113.80242,398.505325 1154.59274,396.23787 1193.4002,386.03432 C1217.19456,379.798817 1240.42238,370.445562 1261.66734,357.691124 C1190.00101,431.666864 1048.93448,428.832544 1048.93448,428.832544 Z M1291.97681,321.128402 C1262.51714,345.50355 1226.8256,361.37574 1189.71774,369.028402 C1152.60988,376.681065 1113.80242,377.247929 1075.84476,372.99645 C1056.86593,371.012426 1037.8871,367.611243 1019.19153,363.643195 C1000.49597,359.675148 982.083669,354.573373 963.954637,348.621302 C927.979839,336.433728 893.421371,320.278107 862.545363,299.587574 C831.386089,278.897041 803.626008,253.671598 780.114919,224.761538 C773.033266,215.975148 766.234879,206.905325 760.003024,197.552071 C768.217742,199.819527 776.149194,202.086982 784.080645,204.921302 C799.943548,210.589941 815.806452,217.392308 831.386089,225.04497 C846.68246,232.697633 862.262097,242.050888 877.558468,251.12071 C908.434476,269.543787 939.877016,287.966864 972.169355,304.689349 C1004.74496,321.411834 1038.45363,336.71716 1073.8619,347.204142 C1100.77218,355.140237 1129.09879,360.242012 1157.70867,360.525444 L1157.70867,360.525444 C1157.70867,360.525444 1225.12601,365.627219 1295.09274,318.294083 C1293.67641,319.427811 1292.82661,320.278107 1291.97681,321.128402 Z" id="Shape" fill="#FDB35F"></path>
        </g>
    </g>
</svg>